HIERARCHY
ROOT Hips
{
	OFFSET 0.000000 0.000000 0.000000 
	CHANNELS 6 Xposition Yposition Zposition Zrotation Yrotation Xrotation
	JOINT LeftUpLeg
	{
		OFFSET 1.363060 -1.794630 0.839290 
		CHANNELS 3 Zrotation Yrotation Xrotation
		JOINT LeftLeg
		{
			OFFSET 2.448110 -6.726130 0.000000 
			CHANNELS 3 Zrotation Yrotation Xrotation
			JOINT LeftFoot
			{
				OFFSET 2.562200 -7.039590 0.000000 
				CHANNELS 3 Zrotation Yrotation Xrotation
				JOINT LeftToeBase
				{
					OFFSET 0.157640 -0.433110 2.322550 
					CHANNELS 3 Zrotation Yrotation Xrotation
					End Site
					{
						OFFSET 0.000000 0.000000 0.000000 
					}
				}
			}
		}
	}
	JOINT RightUpLeg
	{
		OFFSET -1.305520 -1.794630 0.839290 
		CHANNELS 3 Zrotation Yrotation Xrotation
		JOINT RightLeg
		{
			OFFSET -2.542530 -6.985550 0.000000 
			CHANNELS 3 Zrotation Yrotation Xrotation
			JOINT RightFoot
			{
				OFFSET -2.568260 -7.056230 0.000000 
				CHANNELS 3 Zrotation Yrotation Xrotation
				JOINT RightToeBase
				{
					OFFSET -0.164730 -0.452590 2.363150 
					CHANNELS 3 Zrotation Yrotation Xrotation
					End Site
					{
						OFFSET 0.000000 0.000000 0.000000 
					}
				}
			}
		}
	}
	JOINT Spine
	{
		OFFSET 0.028270 2.035590 -0.193380 
		CHANNELS 3 Zrotation Yrotation Xrotation
		JOINT Spine1
		{
			OFFSET 0.056720 2.048850 -0.042750 
			CHANNELS 3 Zrotation Yrotation Xrotation
			JOINT Neck1
			{
				OFFSET -0.054170 1.746240 0.172020 
				CHANNELS 3 Zrotation Yrotation Xrotation
				JOINT Head
				{
					OFFSET 0.104070 1.761360 -0.123970 
					CHANNELS 3 Zrotation Yrotation Xrotation
					End Site
					{
						OFFSET 0.000000 0.000000 0.000000 
					}
				}
			}
			JOINT LeftArm
			{
				OFFSET 3.362410 1.200890 -0.311210 
				CHANNELS 3 Zrotation Yrotation Xrotation
				JOINT LeftForeArm
				{
					OFFSET 4.983000 -0.000000 -0.000000 
					CHANNELS 3 Zrotation Yrotation Xrotation
					JOINT LeftHand
					{
						OFFSET 3.483560 -0.000000 -0.000000 
						CHANNELS 3 Zrotation Yrotation Xrotation
						JOINT LeftHandIndex1
						{
							OFFSET 0.715260 -0.000000 -0.000000 
							CHANNELS 3 Zrotation Yrotation Xrotation
							End Site
							{
								OFFSET 0.000000 0.000000 0.000000 
							}
						}
					}
				}
			}
			JOINT RightArm
			{
				OFFSET -3.136600 1.374050 -0.404650 
				CHANNELS 3 Zrotation Yrotation Xrotation
				JOINT RightForeArm
				{
					OFFSET -5.241900 -0.000000 -0.000000 
					CHANNELS 3 Zrotation Yrotation Xrotation
					JOINT RightHand
					{
						OFFSET -3.444170 -0.000000 -0.000000 
						CHANNELS 3 Zrotation Yrotation Xrotation
						JOINT RightHandIndex1
						{
							OFFSET -0.622530 -0.000000 -0.000000 
							CHANNELS 3 Zrotation Yrotation Xrotation
							End Site
							{
								OFFSET 0.000000 0.000000 0.000000 
							}
						}
					}
				}
			}
		}
	}
}
MOTION
Frames: 12
Frame Time: 0.041667
-1.489216 17.853701 23.351349 -178.905760 -0.000327 -154.040181 -26.539478 -14.636665 -17.814287 -1.100258 3.774890 8.282040 -0.486514 -7.799677 -12.392164 1.306100 -7.239700 -20.427300 32.212381 19.114014 -18.505577 1.125768 -4.904795 10.717963 -0.889898 3.798324 -18.900381 -1.515200 7.773400 -22.027900 1.915444 -1.441807 -5.119360 0.542631 -1.203938 14.254518 10.718628 -8.310109 23.066967 1.257600 -2.591400 4.589300 -105.637626 -1.496159 16.164059 11.720285 -13.470602 -1.761723 -1.717551 0.969333 5.575188 -7.125000 0.000000 0.000000 99.104691 -7.754445 9.398789 -15.725992 27.324142 -4.954912 0.422581 4.029611 -3.147117 7.125000 0.000000 0.000000 
-1.502271 17.851397 23.360235 -178.695925 -0.195700 -154.077425 -26.350699 -14.783261 -17.804241 -1.096161 3.816110 8.384867 -0.488959 -7.775479 -12.316114 1.220500 -7.007300 -19.737000 32.578638 18.622524 -18.511927 1.112445 -4.892613 10.727809 -0.881817 4.134823 -18.804258 -1.586500 7.945600 -22.549000 1.934758 -1.665351 -5.158093 0.293209 -1.779334 14.081757 10.619719 -8.390968 23.036516 1.206300 -2.633400 4.548400 -105.587071 -1.464539 16.143084 11.743233 -13.505669 -1.772350 -1.679492 0.943793 5.851384 -7.125000 0.000000 0.000000 99.134391 -7.724836 9.405679 -15.700280 27.304015 -4.946800 0.414617 4.045604 -3.201144 7.125000 0.000000 0.000000 
-1.498431 17.852384 23.363746 -178.739748 -0.069501 -153.977765 -26.334510 -15.003687 -17.896890 -1.104715 3.852592 8.444718 -0.450618 -7.559966 -12.413918 1.254900 -7.101800 -20.017400 32.423626 18.879261 -18.668625 1.114046 -4.941176 10.794138 -0.881379 4.094329 -18.838816 -1.546000 7.848400 -22.254700 1.897698 -1.427155 -5.149955 0.294655 -1.156370 14.071887 10.469779 -8.428736 22.646584 1.263100 -2.691800 4.886600 -105.533402 -1.417228 16.165493 11.727064 -13.488228 -1.767139 -1.693277 0.965647 5.866707 -7.125000 0.000000 0.000000 99.232173 -7.728394 9.310705 -15.751292 27.365958 -4.971197 0.398038 4.058394 -3.157057 7.125000 0.000000 0.000000 
-1.504684 17.853042 23.367805 -178.956873 0.064330 -153.806080 -26.613560 -15.233938 -18.064502 -1.108458 3.910351 8.527757 -0.429225 -7.432984 -12.506406 1.323100 -7.284700 -20.561600 32.048616 18.803058 -18.971698 1.102753 -4.978575 10.838244 -0.871593 4.317291 -18.781426 -1.494200 7.721700 -21.872000 1.870556 -1.403942 -5.175176 0.293917 -1.143270 14.027200 10.338021 -8.584071 22.731211 1.210200 -2.770000 4.919400 -105.559755 -1.364175 16.028247 11.712249 -13.471371 -1.763248 -1.691420 0.998013 6.092347 -7.125000 0.000000 0.000000 99.238240 -7.767372 9.291504 -15.843820 27.483988 -5.019490 0.386902 4.051746 -3.166472 7.125000 0.000000 0.000000 
-1.498980 17.848983 23.364294 -178.823435 0.063501 -153.854907 -26.410700 -15.269407 -18.019125 -1.114062 3.927104 8.587391 -0.396697 -7.272709 -12.590037 1.394200 -7.470100 -21.115700 32.221361 19.050196 -18.816567 1.112066 -4.953569 10.777443 -0.870214 4.189482 -18.768203 -1.428500 7.557400 -21.377700 1.908593 -1.469403 -5.175177 0.333396 -1.181980 14.038334 10.202536 -8.981370 23.307733 1.025000 -2.926900 4.627600 -105.601308 -1.340049 15.953640 11.683684 -13.421456 -1.749655 -1.715374 1.011596 5.951339 -7.125000 0.000000 0.000000 99.175284 -7.783077 9.462355 -15.925298 27.589790 -5.062549 0.374440 4.055848 -3.321413 7.125000 0.000000 0.000000 
-1.503916 17.851507 23.369012 -178.947748 0.107919 -153.822595 -26.571391 -15.417761 -18.033657 -1.117394 3.953732 8.635345 -0.375925 -7.186816 -12.712473 1.357200 -7.374400 -20.829400 32.012882 19.130022 -18.854723 1.113734 -4.933347 10.709665 -0.856825 4.138289 -18.649055 -1.376400 7.424200 -20.978200 1.904660 -1.491287 -5.177800 0.340729 -1.195083 14.028672 9.954303 -9.251387 22.881889 1.006200 -3.111100 4.972200 -105.641245 -1.400325 16.159479 11.633206 -13.319937 -1.722875 -1.785526 1.007830 5.429095 -7.125000 0.000000 0.000000 99.100318 -7.738277 9.628592 -15.960843 27.630677 -5.080735 0.362847 4.054705 -3.475787 7.125000 0.000000 0.000000 
-1.493056 17.849861 23.370767 -178.624881 0.092068 -153.936259 -26.088547 -15.373480 -17.935123 -1.128087 3.933395 8.625504 -0.335324 -6.993686 -12.802932 1.289600 -7.195500 -20.295900 32.437672 19.598258 -18.582032 1.140175 -4.909963 10.644271 -0.865700 3.670256 -18.739967 -1.434700 7.573200 -21.424900 1.946109 -1.521836 -5.160699 0.353419 -1.212974 14.038001 9.817907 -9.442430 22.909860 0.919700 -3.206500 4.971600 -105.576967 -1.456151 16.237925 11.607487 -13.273661 -1.711444 -1.803177 1.012855 5.602294 -7.125000 0.000000 0.000000 99.085307 -7.604792 9.653326 -15.926584 27.583976 -5.065408 0.384288 4.057493 -3.516424 7.125000 0.000000 0.000000 
-1.502710 17.853042 23.376801 -178.873614 0.258494 -153.753394 -26.439431 -15.546672 -18.102605 -1.131964 3.971355 8.655912 -0.321556 -6.900324 -12.867990 1.261700 -7.120300 -20.072300 32.044110 19.405627 -18.926235 1.124540 -4.971707 10.758139 -0.858249 3.893254 -18.694805 -1.509900 7.760400 -21.988500 1.907618 -1.553825 -5.171954 0.249034 -1.233513 14.079319 9.718946 -9.628628 23.550638 0.782000 -3.247800 4.719000 -105.514517 -1.468589 15.986310 11.618846 -13.300712 -1.717341 -1.785128 1.047957 6.271060 -7.125000 0.000000 0.000000 99.064534 -7.486547 9.815540 -15.934563 27.611257 -5.078618 0.411865 4.074998 -3.608444 7.125000 0.000000 0.000000 
-1.498870 17.848764 23.375594 -178.573600 0.245422 -153.914516 -26.053233 -15.574133 -17.907834 -1.141072 3.944822 8.639629 -0.284125 -6.715269 -12.943466 1.310400 -7.251000 -20.461200 32.494040 19.431568 -18.675825 1.125554 -4.951573 10.754954 -0.864906 3.950376 -18.734242 -1.532600 7.815800 -22.156100 1.969034 -1.653078 -5.151845 0.236873 -1.280382 14.111147 9.595993 -9.725416 23.841793 0.756800 -3.282200 4.844500 -105.587389 -1.451827 15.930984 11.649564 -13.354012 -1.731404 -1.782157 1.083088 6.279151 -7.125000 0.000000 0.000000 98.941943 -7.467179 10.096791 -16.029653 27.738615 -5.133147 0.407561 4.088357 -3.817823 7.125000 0.000000 0.000000 
-1.500954 17.849971 23.378885 -178.867026 0.435118 -153.713043 -26.423322 -15.667361 -18.105584 -1.141544 3.997014 8.701923 -0.280735 -6.733198 -13.080091 1.310900 -7.252300 -20.465100 32.010037 19.387807 -18.952018 1.119393 -4.951270 10.692414 -0.848814 4.123462 -18.618954 -1.497200 7.729200 -21.894500 1.879072 -1.579329 -4.897576 0.040827 -1.338240 15.413533 9.697732 -9.759840 24.008579 0.793400 -3.299000 4.949000 -105.381035 -2.300179 16.113337 11.662795 -13.364518 -1.733081 -1.754029 1.108280 5.996653 -7.125000 0.000000 0.000000 99.093541 -6.448197 9.954521 -15.963449 27.657438 -5.098165 0.415435 4.079702 -3.656530 7.125000 0.000000 0.000000 
-1.504465 17.850190 23.383163 -178.737459 0.375775 -153.810441 -26.255545 -15.717015 -18.073945 -1.140457 4.035627 8.818785 -0.264645 -6.690141 -13.181042 1.277800 -7.163700 -20.201300 32.216339 19.324256 -18.806158 1.122111 -4.903203 10.605510 -0.846150 4.136369 -18.572671 -1.473600 7.670700 -21.718300 1.930150 -1.657594 -4.969739 0.116728 -1.348257 15.008520 9.605900 -9.884715 24.333217 0.807900 -3.346300 5.077600 -105.519964 -2.009446 16.261213 11.716509 -13.461121 -1.764790 -1.696334 1.100122 5.981817 -7.125000 0.000000 0.000000 99.014954 -6.640829 9.746570 -15.995197 27.689968 -5.115681 0.431856 4.058785 -3.500106 7.125000 0.000000 0.000000 
-1.502600 17.853042 23.386235 -178.775651 0.415800 -153.847578 -26.278382 -15.821749 -18.090573 -1.137344 4.104627 8.990082 -0.247184 -6.607189 -13.256791 1.266900 -7.134400 -20.114200 32.152040 19.407174 -18.747635 1.124758 -4.903381 10.613194 -0.851498 4.036962 -18.614366 -1.491900 7.716200 -21.855300 1.874562 -1.629957 -4.922577 -0.062659 -1.339695 15.157951 9.805160 -10.094168 24.262537 0.869200 -3.453600 5.057700 -105.331681 -2.166537 16.404434 11.731384 -13.479535 -1.766990 -1.679206 1.028815 5.732714 -7.125000 0.000000 0.000000 99.254441 -6.474810 9.496970 -15.988399 27.685847 -5.113426 0.448813 4.017628 -3.338437 7.125000 0.000000 0.000000 
